Coordinates
version=1
nRows=60
nColumns=12
inDegrees=yes

Units are S.I. units (second, meters, Newtons, ...)
Angles are in degrees

endheader
time	SC_y	SC_z	SC_x	AC_y	AC_z	AC_x	GH_y	GH_z	GH_yy	EL_x	PS_y
       0.0              -23.05          20.89          16.56          42.14          3.021         -5.134          45.44          29.46         -61.44          69.61          104.9
   0.04004              -23.05          20.88          16.57          42.14          3.019         -5.132          45.41          29.46         -61.45          69.61          104.9
   0.08007              -23.05          20.88          16.58          42.14          3.017         -5.129          45.37          29.45         -61.46          69.61          104.9
    0.1201              -23.05          20.88          16.59          42.14          3.015         -5.127          45.34          29.45         -61.47          69.61          104.9
    0.1601              -23.05          20.87           16.6          42.14          3.013         -5.124           45.3          29.44         -61.49           69.6          104.9
    0.2002              -23.05          20.87          16.61          42.15           3.01         -5.121          45.26          29.44          -61.5           69.6          104.9
    0.2402              -23.05          20.86          16.62          42.15          3.007         -5.118          45.21          29.43         -61.51           69.6          104.9
    0.2803              -23.04          20.86          16.63          42.15          3.005         -5.115          45.17          29.43         -61.53           69.6          104.8
    0.3203              -23.04          20.85          16.65          42.15          3.001         -5.112          45.12          29.42         -61.54          69.59          104.8
    0.3603              -23.04          20.85          16.66          42.15          2.998         -5.108          45.06          29.41         -61.56          69.59          104.8
    0.4004              -23.04          20.84          16.68          42.16          2.995         -5.104          45.01          29.41         -61.57          69.59          104.8
    0.4404              -23.04          20.83          16.69          42.16          2.991           -5.1          44.94           29.4         -61.59          69.58          104.8
    0.4804              -23.04          20.83          16.71          42.16          2.987         -5.095          44.88          29.39         -61.61          69.58          104.8
    0.5205              -23.04          20.82          16.73          42.17          2.982          -5.09          44.81          29.38         -61.64          69.58          104.8
    0.5605              -23.04          20.81          16.75          42.17          2.977         -5.085          44.73          29.37         -61.66          69.57          104.8
    0.6005              -23.04           20.8          16.77          42.17          2.972         -5.079          44.64          29.36         -61.69          69.57          104.8
    0.6406              -23.03          20.79           16.8          42.18          2.966         -5.073          44.55          29.35         -61.71          69.56          104.8
    0.6806              -23.03          20.78          16.82          42.18           2.96         -5.066          44.45          29.34         -61.74          69.56          104.8
    0.7206              -23.03          20.77          16.85          42.19          2.953         -5.058          44.34          29.33         -61.78          69.55          104.8
    0.7607              -23.03          20.76          16.88          42.19          2.946          -5.05          44.22          29.31         -61.81          69.55          104.7
    0.8007              -23.03          20.74          16.92           42.2          2.938         -5.041          44.09           29.3         -61.85          69.54          104.7
    0.8408              -23.02          20.73          16.96           42.2          2.929         -5.031          43.95          29.28          -61.9          69.53          104.7
    0.8808              -23.02          20.71           17.0          42.21          2.919          -5.02          43.79          29.26         -61.95          69.52          104.7
    0.9208              -23.02          20.69          17.05          42.22          2.908         -5.008          43.61          29.24          -62.0          69.51          104.7
    0.9609              -23.02          20.67           17.1          42.23          2.896         -4.995          43.41          29.21         -62.06           69.5          104.7
     1.001              -23.01          20.65          17.16          42.24          2.882         -4.979          43.19          29.19         -62.13          69.49          104.6
     1.041              -23.01          20.62          17.22          42.25          2.867         -4.963          42.95          29.16          -62.2          69.48          104.6
     1.081               -23.0           20.6          17.29          42.26           2.85         -4.944          42.67          29.12         -62.29          69.46          104.6
     1.121               -23.0          20.56          17.38          42.27          2.831         -4.922          42.36          29.09         -62.38          69.44          104.6
     1.161              -22.99          20.52          17.47          42.29          2.809         -4.898          42.01          29.04         -62.49          69.43          104.5
     1.201              -22.99          20.48          17.58           42.3          2.784          -4.87           41.6          28.99         -62.61           69.4          104.5
     1.241              -22.98          20.43           17.7          42.32          2.755         -4.838          41.14          28.94         -62.76          69.38          104.4
     1.281              -22.97          20.38          17.84          42.35          2.722         -4.801           40.6          28.87         -62.92          69.35          104.4
     1.321              -22.96          20.31           18.0          42.37          2.683         -4.758          39.98           28.8         -63.11          69.32          104.3
     1.361              -22.95          20.23           18.2           42.4          2.638         -4.708          39.25          28.71         -63.33          69.28          104.2
     1.401              -22.93          20.14          18.42          42.44          2.584         -4.649          38.39          28.61          -63.6          69.23          104.1
     1.441              -22.92          20.04          18.69          42.49          2.521         -4.579          37.37          28.48         -63.91          69.18          104.0
     1.481               -22.9          19.91          19.02          42.54          2.445         -4.494          36.14          28.33         -64.28          69.11          103.9
     1.521              -22.87          19.75          19.41           42.6          2.354         -4.392          34.66          28.15         -64.73          69.03          103.8
     1.561              -22.84          19.56          19.88          42.68          2.241         -4.268          32.85          27.93         -65.29          68.93          103.6
     1.601              -22.81          19.32          20.47          42.78          2.103         -4.114          30.62          27.66         -65.97          68.81          103.3
     1.641              -22.76          19.03          21.21          42.89           1.93         -3.923          27.83          27.33         -66.82          68.66          103.0
     1.682               -22.7          18.66          22.13          43.05          1.713         -3.681          24.33           26.9         -67.89          68.47          102.7
     1.722              -22.63          18.19          23.31          43.24          1.437         -3.375          19.87          26.36         -69.25          68.23          102.2
     1.762              -22.54          17.59          24.82          43.48          1.083         -2.982          14.16          25.67          -71.0          67.92          101.6
     1.802              -22.41          16.82          26.75           43.8         0.6291         -2.478          6.833          24.78         -73.24          67.53          100.9
     1.842              -22.26          15.83          29.22           44.2        0.04928         -1.834         -2.523          23.65         -76.09          67.03           99.9
     1.882              -22.07          14.59          32.32           44.7        -0.6798         -1.025         -14.29          22.23         -79.69          66.39          98.67
     1.922              -21.83          13.08          36.11          45.32         -1.568       -0.03861         -28.63          20.49         -84.07          65.62          97.19
     1.962              -21.56          11.32          40.49          46.03         -2.598          1.105         -45.24          18.48         -89.14          64.72          95.46
     2.002              -21.26          9.424          45.24          46.81         -3.713          2.343         -63.24           16.3         -94.64          63.75          93.59
     2.042              -20.97          7.527          49.99          47.58         -4.828          3.581         -81.23          14.12         -100.1          62.78          91.73
     2.082              -20.69          5.774          54.38          48.29         -5.858          4.724         -97.85           12.1         -105.2          61.89           90.0
     2.122              -20.46          4.262          58.16          48.91         -6.746           5.71         -112.2          10.37         -109.6          61.11          88.51
     2.162              -20.26          3.021          61.26          49.41         -7.475          6.519         -124.0          8.944         -113.2          60.48          87.29
     2.202              -20.11          2.034          63.73          49.82         -8.055          7.163         -133.3           7.81         -116.0          59.98          86.32
     2.242              -19.99          1.261          65.67          50.13         -8.509          7.667         -140.6          6.923         -118.3          59.58          85.56
     2.282               -19.9         0.6592          67.17          50.37         -8.863           8.06         -146.3          6.232         -120.0          59.27          84.97
     2.322              -19.82         0.1889          68.35          50.57         -9.139          8.367         -150.8          5.692         -121.4          59.03          84.51
     2.362              -19.77        -0.1811          69.27          50.72         -9.357          8.608         -154.3          5.267         -122.5          58.84          84.14
